<?xml version="1.0" standalone="no"?>
<!DOCTYPE svg PUBLIC "-//W3C//DTD SVG 20010904//EN"
 "http://www.w3.org/TR/2001/REC-SVG-20010904/DTD/svg10.dtd">
<svg version="1.0" xmlns="http://www.w3.org/2000/svg"
 width="512.000000pt" height="512.000000pt" viewBox="0 0 512.000000 512.000000"
 preserveAspectRatio="xMidYMid meet">
<metadata>
Created by potrace 1.14, written by Peter Selinger 2001-2017
</metadata>
<g transform="translate(0.000000,512.000000) scale(0.100000,-0.100000)"
fill="#000000" stroke="none">
<path d="M0 3098 l0 -2023 2020 2020 c1111 1111 2020 2021 2020 2022 0 2 -909
3 -2020 3 l-2020 0 0 -2022z"/>
<path d="M1978 2330 c-220 -40 -393 -154 -472 -310 -45 -90 -60 -165 -53 -265
9 -146 72 -255 194 -338 94 -65 176 -96 413 -157 273 -70 339 -100 376 -172
26 -50 15 -138 -22 -185 -89 -113 -317 -142 -482 -62 -75 37 -116 87 -139 171
l-16 58 -188 0 -188 0 5 -52 c28 -270 188 -450 464 -523 100 -26 361 -32 475
-10 291 54 462 211 497 453 31 221 -72 413 -277 518 -97 50 -162 72 -370 122
-236 58 -310 100 -335 193 -23 84 18 162 106 205 47 23 75 29 149 32 179 8
292 -54 325 -180 l11 -38 184 0 185 0 0 38 c0 54 -26 147 -58 206 -39 75 -144
175 -227 218 -117 61 -199 80 -365 84 -80 1 -166 -1 -192 -6z"/>
<path d="M3100 1404 l0 -916 403 5 c332 4 415 7 477 22 304 69 508 247 600
522 54 162 72 352 50 522 -58 445 -328 709 -768 751 -59 5 -254 10 -434 10
l-328 0 0 -916z m806 556 c102 -26 176 -71 230 -140 100 -126 139 -363 99
-596 -30 -167 -104 -278 -228 -339 -96 -47 -148 -55 -348 -55 l-169 0 0 575 0
575 168 0 c137 0 184 -4 248 -20z"/>
</g>
</svg>
