<?xml version="1.0" standalone="no"?>
<!DOCTYPE svg PUBLIC "-//W3C//DTD SVG 20010904//EN"
 "http://www.w3.org/TR/2001/REC-SVG-20010904/DTD/svg10.dtd">
<svg version="1.0" xmlns="http://www.w3.org/2000/svg"
 width="512.000000pt" height="512.000000pt" viewBox="0 0 512.000000 512.000000"
 preserveAspectRatio="xMidYMid meet">
<metadata>
Created by potrace 1.14, written by Peter Selinger 2001-2017
</metadata>
<g transform="translate(0.000000,512.000000) scale(0.100000,-0.100000)"
fill="#000000" stroke="none">
<path d="M1960 2315 c-236 -53 -398 -182 -460 -366 -19 -54 -21 -81 -18 -174
3 -94 8 -119 32 -171 46 -102 166 -203 305 -255 31 -11 139 -43 241 -69 279
-73 346 -104 386 -181 28 -55 10 -144 -39 -197 -107 -115 -394 -118 -526 -6
-38 32 -81 115 -81 157 l0 27 -185 0 -185 0 0 -38 c0 -57 35 -186 67 -245 16
-29 56 -80 90 -114 156 -157 451 -224 763 -171 143 24 265 82 351 168 95 94
139 206 139 351 0 187 -82 323 -255 425 -67 39 -187 79 -368 123 -92 22 -191
52 -221 66 -102 48 -149 128 -126 214 22 84 89 132 209 152 80 13 188 1 244
-27 65 -33 113 -93 127 -159 l6 -30 182 -3 182 -2 0 22 c0 13 -7 53 -15 91
-39 187 -181 327 -400 397 -91 29 -343 38 -445 15z"/>
<path d="M3097 2303 c-4 -3 -7 -406 -7 -895 l0 -888 364 0 c399 0 476 6 611
51 220 73 387 229 469 439 102 261 94 616 -19 855 -115 242 -341 399 -625 434
-92 12 -782 15 -793 4z m838 -351 c121 -44 217 -146 255 -271 48 -152 47 -389
-1 -536 -42 -127 -134 -224 -254 -266 -49 -17 -97 -23 -255 -29 -107 -5 -198
-6 -202 -4 -5 3 -8 260 -8 570 l0 566 203 -4 c176 -4 210 -7 262 -26z"/>
</g>
</svg>
